<svg xmlns="http://www.w3.org/2000/svg" width="270.1" height="577.101" viewBox="0 0 270.1 577.101">
  <g id="Border" transform="translate(-308.95 -265.95)">
    <g id="Group_1" data-name="Group 1" transform="translate(22.7 -41.999)">
      <path id="Path_1" data-name="Path 1" d="M556.3,334.8V858.2A26.93,26.93,0,0,1,529.2,885H313.4a26.93,26.93,0,0,1-27.1-26.8V334.8A26.93,26.93,0,0,1,313.4,308h28.3a4.951,4.951,0,0,1,5,5h0v.2a15.983,15.983,0,0,0,16.1,15.9h117a16.048,16.048,0,0,0,16.1-15.9V313a5.015,5.015,0,0,1,5-5h28.3A26.93,26.93,0,0,1,556.3,334.8Z" fill="rgba(0,0,0,0)" stroke="#101639" stroke-miterlimit="10" stroke-width="0.1"/>
    </g>
    <path id="Path_2" data-name="Path 2" d="M343.3,308v.2a4.93,4.93,0,0,1,3.6,4.777h0v.2A15.951,15.951,0,0,0,363.013,329H480.088a16.016,16.016,0,0,0,16.11-15.824v-.2a4.91,4.91,0,0,1,3.1-4.578V308Z" transform="translate(22.7 -41.999)" fill="#101639"/>
  </g>
</svg>
