<svg xmlns="http://www.w3.org/2000/svg" width="26" height="26" viewBox="0 0 26 26"><defs><style>.a{fill:none;}.b{fill:#fff;}</style></defs><rect class="a" width="26" height="26" transform="translate(0 0)"/><g transform="translate(0.813 0.813)"><g transform="translate(0 0)"><path class="b" d="M19.665,24.376H4.71A4.716,4.716,0,0,1,0,19.665V4.711A4.716,4.716,0,0,1,4.71,0H19.66a4.719,4.719,0,0,1,4.715,4.711V19.665A4.716,4.716,0,0,1,19.665,24.376ZM2.372,9.685h0v9.981A2.339,2.339,0,0,0,4.71,22H19.66A2.339,2.339,0,0,0,22,19.665V9.685h-3.64a6.6,6.6,0,0,1,.495,2.5,6.667,6.667,0,1,1-13.333,0,6.557,6.557,0,0,1,.491-2.5ZM12.191,7.9A4.321,4.321,0,0,0,8.707,9.685a4.291,4.291,0,1,0,6.961,0A4.311,4.311,0,0,0,12.191,7.9Zm8.828-5.09-3.6.014.014,4.132,4.118-.014V2.807Z"/></g></g></svg>