<svg xmlns="http://www.w3.org/2000/svg" width="26" height="26" viewBox="0 0 26 26"><defs><style>.a{fill:none;}.b{fill:#fff;}</style></defs><rect class="a" width="26" height="26" transform="translate(0 0)"/><g transform="translate(0 1.751)"><path class="b" d="M6,26.912a10.066,10.066,0,0,0,1.273.082A10.241,10.241,0,0,0,13.9,24.559a5.428,5.428,0,0,1-4.983-4.009,4.937,4.937,0,0,0,2.408-.082A5.713,5.713,0,0,1,7.043,14.8v-.073a5.071,5.071,0,0,0,2.417.745,5.948,5.948,0,0,1-2.371-4.811A6.009,6.009,0,0,1,7.811,7.78a15.008,15.008,0,0,0,10.995,6.134,6.055,6.055,0,0,1-.138-1.3A5.418,5.418,0,0,1,24,7,5.288,5.288,0,0,1,27.9,8.855a10.151,10.151,0,0,0,3.387-1.318,5.512,5.512,0,0,1-2.346,3.093A10.087,10.087,0,0,0,32,9.783a11.031,11.031,0,0,1-2.663,2.89c.011.244.015.487.015.731,0,7.477-5.367,16.1-15.179,16.094A14.271,14.271,0,0,1,6,26.912Z" transform="translate(-6 -6.999)"/></g></svg>