<svg xmlns="http://www.w3.org/2000/svg" width="14" height="14" viewBox="0 0 14 14"><defs><style>.a{fill:none;}.b{fill:#101639;}</style></defs><g transform="translate(-170 3781) rotate(-90)"><rect class="a" width="14" height="14" transform="translate(3767 170)"/><g transform="translate(3781 172.588) rotate(90)"><path class="b" d="M8.492,6.191,2.633.341A1.068,1.068,0,0,0,1.824,0a1.068,1.068,0,0,0-.809.341l-.683.674A1.1,1.1,0,0,0,0,1.824a1.15,1.15,0,0,0,.333.818L4.7,7,.332,11.367A1.1,1.1,0,0,0,0,12.176a1.15,1.15,0,0,0,.332.818l.683.674A1.1,1.1,0,0,0,1.824,14a1.1,1.1,0,0,0,.809-.332l5.859-5.85A1.151,1.151,0,0,0,8.824,7,1.1,1.1,0,0,0,8.492,6.191Z" transform="translate(0 0)"/></g></g></svg>