<svg xmlns="http://www.w3.org/2000/svg" xmlns:xlink="http://www.w3.org/1999/xlink" width="396.176" height="351.491" viewBox="0 0 396.176 351.491"><defs><style>.a,.b{opacity:0.8;}.a{fill:url(#a);}.b{fill:url(#b);}</style><linearGradient id="a" x1="0.706" y1="0.151" x2="0" y2="1" gradientUnits="objectBoundingBox"><stop offset="0" stop-color="#101639"/><stop offset="1" stop-color="#160a28"/></linearGradient><linearGradient id="b" x1="0.684" y1="0.157" x2="0" xlink:href="#a"/></defs><path class="a" d="M515.887,997.736c-20.814-1.8-41.2-4.439-60.593-7.852-32.672-5.75-63.173-13.766-90.656-23.825-10.8-3.952-21.153-8.233-30.773-12.725-7.7-3.595-14.948-7.33-21.541-11.1a150.33,150.33,0,0,1-16.8-10.826l0,0V703.1c51.1-25.063,100.839-37.511,100.839-37.511s98.424-35.521,147.743-1.915c59.276,40.39,48.821,125.913,72.767,169.847,17.414,31.948,91.6,54.021,71.357,105.77-4.675,21.654-8.687,39.737-16.449,57.731-7.167.59-14.343,1.119-21.474,1.584-21.43,1.4-42.683,2.1-63.17,2.1C562.756,1000.713,538.788,999.712,515.887,997.736Z" transform="translate(-295.517 -649.222)"/><path class="b" d="M547.918,1009.155c-20.814-1.8-41.2-4.439-60.593-7.852-32.672-5.75-63.174-13.766-90.656-23.825-10.8-3.952-21.154-8.233-30.774-12.725-7.7-3.595-14.948-7.33-21.541-11.1a150.359,150.359,0,0,1-16.8-10.826l0,0V732.211A576.108,576.108,0,0,1,405.6,705.145s98.424-35.52,147.742-1.915c59.276,40.39,48.821,125.913,72.767,169.848,17.414,31.948,91.6,54.021,71.357,105.77-2.37,10.978-4.57,21.04-7.174,30.635q-3.99.286-7.965.545c-21.43,1.4-42.683,2.1-63.17,2.1C594.787,1012.132,570.818,1011.131,547.918,1009.155Z" transform="translate(-327.547 -660.641)"/></svg>