<svg xmlns="http://www.w3.org/2000/svg" xmlns:xlink="http://www.w3.org/1999/xlink" width="556.974" height="494.152" viewBox="0 0 556.974 494.152"><defs><style>.a,.b{opacity:0.8;}.a{fill:url(#a);}.b{fill:url(#b);}</style><linearGradient id="a" x1="0.706" y1="0.151" x2="0" y2="1" gradientUnits="objectBoundingBox"><stop offset="0" stop-color="#101639"/><stop offset="1" stop-color="#160a28"/></linearGradient><linearGradient id="b" x1="0.684" y1="0.157" x2="0" xlink:href="#a"/></defs><g transform="translate(3534.001 -844.222)"><path class="a" d="M605.33,1139.188c-29.262-2.527-57.922-6.241-85.186-11.038-45.933-8.084-88.814-19.353-127.451-33.5-15.183-5.557-29.739-11.575-43.263-17.889-10.826-5.053-21.015-10.3-30.284-15.605-15.47-8.848-23.3-14.965-23.625-15.221l0,0V724.971c71.84-35.235,141.767-52.735,141.767-52.735s138.372-49.937,207.707-2.693c83.335,56.783,68.637,177.018,102.3,238.784,24.482,44.915,128.781,75.947,100.318,148.7-6.572,30.443-12.213,55.865-23.126,81.162-10.076.829-20.165,1.574-30.189,2.227-30.128,1.962-60.008,2.957-88.809,2.957C671.222,1143.374,637.525,1141.967,605.33,1139.188Z" transform="translate(-3829.517 195)"/><path class="b" d="M637.361,1139.188c-29.262-2.527-57.923-6.241-85.186-11.038-45.933-8.084-88.815-19.353-127.451-33.5-15.184-5.557-29.74-11.575-43.264-17.889-10.826-5.053-21.015-10.3-30.284-15.605-15.47-8.848-23.3-14.965-23.625-15.221l0,0V749.84a809.923,809.923,0,0,1,109.736-38.051s138.372-49.936,207.707-2.693c83.335,56.784,68.637,177.018,102.3,238.784,24.482,44.915,128.781,75.947,100.318,148.7-3.332,15.433-6.425,29.58-10.086,43.07q-5.609.4-11.2.766c-30.128,1.962-60.008,2.957-88.809,2.957C703.252,1143.374,669.555,1141.967,637.361,1139.188Z" transform="translate(-3861.548 195)"/></g></svg>