<svg xmlns="http://www.w3.org/2000/svg" xmlns:xlink="http://www.w3.org/1999/xlink" width="900" height="616.183" viewBox="0 0 900 616.183"><defs><style>.a{opacity:0.5;fill:url(#a);}.b{opacity:0.8;fill:url(#b);}</style><linearGradient id="a" x1="0.5" y1="1" x2="0.857" y2="0.102" gradientUnits="objectBoundingBox"><stop offset="0" stop-color="#101639"/><stop offset="1" stop-color="#160a28"/></linearGradient><linearGradient id="b" x2="0.89" y2="0.184" xlink:href="#a"/></defs><g transform="translate(0 0)"><path class="a" d="M489.514,615.868c-125.8-9.391-185.075-148.839-260.177-194.695-54.615-33.346-187.014-1.73-201.685-98.347C1.015,239.944-14.981,187.14,20.484,61.9A399.041,399.041,0,0,1,44.138,0H900V206.2C856.156,344.4,712.845,483.039,712.845,483.039S600.505,616.181,498.031,616.182Q493.759,616.182,489.514,615.868Z" transform="translate(0 0)"/><path class="b" d="M489.513,552.985c-125.8-9.391-185.075-148.839-260.176-194.695-54.615-33.346-187.015-1.73-201.685-98.347C1.084,177.279-14.9,124.533,20.207,0H890.04V170.763c-52.256,128.519-177.2,249.393-177.2,249.393S600.5,553.3,498.03,553.3Q493.758,553.3,489.513,552.985Z" transform="translate(9.96 0)"/></g></svg>