<svg xmlns="http://www.w3.org/2000/svg" width="85" height="293" viewBox="0 0 85 293"><defs><style>.a{fill:#98fc03;}</style></defs><g transform="translate(1181.894 740) rotate(180)"><rect class="a" width="8.5" height="8.517" transform="translate(1096.894 447)"/><rect class="a" width="8.5" height="8.517" transform="translate(1096.894 504.067)"/><rect class="a" width="8.5" height="8.517" transform="translate(1096.894 561.134)"/><rect class="a" width="8.5" height="8.517" transform="translate(1096.894 617.349)"/><rect class="a" width="8.5" height="8.517" transform="translate(1096.894 674.416)"/><rect class="a" width="8.5" height="8.517" transform="translate(1096.894 731.483)"/><rect class="a" width="8.5" height="8.517" transform="translate(1135.144 447)"/><rect class="a" width="8.5" height="8.517" transform="translate(1173.394 447)"/><rect class="a" width="8.5" height="8.517" transform="translate(1135.144 504.067)"/><rect class="a" width="8.5" height="8.517" transform="translate(1173.394 504.067)"/><rect class="a" width="8.5" height="8.517" transform="translate(1135.144 561.134)"/><rect class="a" width="8.5" height="8.517" transform="translate(1173.394 561.134)"/><rect class="a" width="8.5" height="8.517" transform="translate(1135.144 617.349)"/><rect class="a" width="8.5" height="8.517" transform="translate(1173.394 617.349)"/><rect class="a" width="8.5" height="8.517" transform="translate(1135.144 674.416)"/><rect class="a" width="8.5" height="8.517" transform="translate(1173.394 674.416)"/><rect class="a" width="8.5" height="8.517" transform="translate(1135.144 731.483)"/><rect class="a" width="8.5" height="8.517" transform="translate(1173.394 731.483)"/></g></svg>