<svg xmlns="http://www.w3.org/2000/svg" width="36" height="36" viewBox="0 0 36 36"><defs><style>.a{fill:#98fc03;}.b{fill:none;}.c{fill:#fff;}</style></defs><g transform="translate(-142 -1048)"><path class="a" d="M18,0A18,18,0,1,1,0,18,18,18,0,0,1,18,0Z" transform="translate(142 1048)"/><g transform="translate(149.826 1055.826)"><rect class="b" width="20.348" height="20.348"/><path class="c" d="M19.878.627h0A1.7,1.7,0,0,0,18.737.1,1.431,1.431,0,0,0,17.6.627L7.006,11.872,2.933,7.3a1.678,1.678,0,0,0-2.444,0A1.656,1.656,0,0,0,0,8.534a1.656,1.656,0,0,0,.489,1.23l5.377,5.8a1.5,1.5,0,0,0,2.281,0L19.715,3.087a1.658,1.658,0,0,0,.163-2.46Z" transform="translate(0 2.079)"/></g></g></svg>