<svg xmlns="http://www.w3.org/2000/svg" width="170.451" height="170" viewBox="0 0 170.451 170"><defs><style>.a{fill:#ff7e61;opacity:0.1;}.b{fill:#fff;}</style></defs><g transform="translate(-732.732 -2625.259)"><path class="a" d="M49.606,170a14.422,14.422,0,0,1-10.03-4.123,88.962,88.962,0,0,1-18.888-16.6A99.78,99.78,0,0,1,6.547,127.306L.3,83.551c-1.122-5.209.874-12.012,5.934-20.219A32.246,32.246,0,0,0,16,83.095v31.253a16.012,16.012,0,0,0,15.9,16.086h5.323A16.089,16.089,0,0,0,53.072,116.39l2.075-16.571A12.057,12.057,0,0,1,67.1,89.272h.039l26.645.062a12.022,12.022,0,0,1,9.634,4.848,38.683,38.683,0,0,0,4.224,64.356c-1.393-.22-2.783-.452-3.96-.65l-.933-.157c-5.9-.995-11.468-1.934-16.47-1.934a31.358,31.358,0,0,0-4.173.257c-4.241.565-8.9,3.4-13.832,6.393C62.167,166.16,55.849,170,49.606,170ZM162.25,108.717l0,0a39.432,39.432,0,0,0-17.533-18.292V83.127a31.094,31.094,0,0,0,8.61-32.1c4.793,5.726,8.346,11.062,10.116,18.486A51.458,51.458,0,0,1,164.665,82.4a117.172,117.172,0,0,1-1.873,17.7.061.061,0,0,1-.006.036c0,.147-.076,3.6-.536,8.583ZM59.543,37.33h-.929a31.9,31.9,0,0,0-20.956-8.347C51.52,17.312,65.27,8.742,73.54,6.613A66.234,66.234,0,0,1,101.63,0a55.49,55.49,0,0,1,12.605,1.444c3.386.791,7.736,5.285,12.927,13.356A175.586,175.586,0,0,1,135.8,30.159c.243.481.389.77.414.8.291.377.589.761.886,1.141a30.411,30.411,0,0,0-12.442-3.107c-.34-.011-.685-.017-1.025-.017a31.438,31.438,0,0,0-21.372,8.352h-1.084l-4.962-5.963a14.153,14.153,0,0,0-10.94-5.146H75.445a14.153,14.153,0,0,0-10.94,5.146L59.543,37.33Z" transform="translate(732.732 2625.259)"/><path class="b" d="M-1977.849-261.641a39.349,39.349,0,0,1,15.311-31.194,12.027,12.027,0,0,0-9.672-4.917l-26.75-.063H-1999a12.145,12.145,0,0,0-12,10.694l-2.084,16.8a16.168,16.168,0,0,1-15.908,14.239h-5.344a16.175,16.175,0,0,1-15.964-16.31v-31.688a32.692,32.692,0,0,1-9.967-23.2,31.537,31.537,0,0,1,31.338-31.666,31.875,31.875,0,0,1,21.407,8.468h.933l4.983-6.046a14.2,14.2,0,0,1,11.073-5.216h9.682a14.2,14.2,0,0,1,11.074,5.217l4.983,6.045h1.088a31.473,31.473,0,0,1,22.485-8.452c16.9.57,30.461,15.046,30.19,32.2a31.551,31.551,0,0,1-10.049,22.685v7.4a39.6,39.6,0,0,1,21.208,35,39.22,39.22,0,0,1-39.015,39.294A39.168,39.168,0,0,1-1977.849-261.641Zm3.935-.009a35.212,35.212,0,0,0,35.025,35.318,35.214,35.214,0,0,0,35.027-35.318,35.215,35.215,0,0,0-35.027-35.317A35.212,35.212,0,0,0-1973.914-261.649Zm-82.435-65.6a28.254,28.254,0,0,0,9.3,20.83,2.031,2.031,0,0,1,.686,1.478v32.557a12.214,12.214,0,0,0,12.028,12.335h5.344a12.2,12.2,0,0,0,12-10.741l2.084-16.848A16.075,16.075,0,0,1-1999-301.789h.052l26.75.063a16,16,0,0,1,12.932,6.635,38.735,38.735,0,0,1,34.248-3.316v-6.539a1.96,1.96,0,0,1,.638-1.521,26.921,26.921,0,0,0,9.356-20.338c.236-15-11.588-27.628-26.36-28.124a26.978,26.978,0,0,0-20.152,7.908,1.906,1.906,0,0,1-1.381.517h-45.4a1.9,1.9,0,0,1-1.429-.568c-.031-.033-.06-.011-.093-.042a27.293,27.293,0,0,0-19.047-7.8h-.037A27.567,27.567,0,0,0-2056.349-327.253Zm57.78-26.743-2.918,3.518h31.592l-2.918-3.518a10.288,10.288,0,0,0-8.037-3.77h-9.771A10.286,10.286,0,0,0-1998.569-354Zm54.947,102.237a3.182,3.182,0,0,1-1.188-4.313l8.521-15.24a3.118,3.118,0,0,1,4.27-1.2,3.183,3.183,0,0,1,1.188,4.314l-8.521,15.239a3.129,3.129,0,0,1-2.732,1.61A3.089,3.089,0,0,1-1943.622-251.76Zm18.242-.518a3.187,3.187,0,0,1,0-4.476l5.328-5.382-5.328-5.381a3.187,3.187,0,0,1,0-4.476,3.112,3.112,0,0,1,4.432,0l7.545,7.619a3.189,3.189,0,0,1,0,4.477l-7.545,7.619a3.1,3.1,0,0,1-2.216.928A3.108,3.108,0,0,1-1925.38-252.277Zm-29.314,0-7.545-7.62a3.187,3.187,0,0,1,0-4.476l7.545-7.62a3.114,3.114,0,0,1,4.432,0,3.188,3.188,0,0,1,0,4.477l-5.328,5.381,5.328,5.381a3.189,3.189,0,0,1,0,4.477,3.115,3.115,0,0,1-2.217.926A3.109,3.109,0,0,1-1954.694-252.277Zm11.217-53.486h-.05a7.135,7.135,0,0,1-5.173-2.14,7.444,7.444,0,0,1-2.1-5.28,7.364,7.364,0,0,1,7.421-7.308,7.368,7.368,0,0,1,7.236,7.495,7.25,7.25,0,0,1-2.185,5.161,7.193,7.193,0,0,1-5.047,2.073Zm-2.387-9.722a3.456,3.456,0,0,0-.032,4.854,3.374,3.374,0,0,0,4.806.033,3.42,3.42,0,0,0,1.012-2.42,3.452,3.452,0,0,0-.979-2.434,3.37,3.37,0,0,0-2.419-1.022A3.372,3.372,0,0,0-1945.864-315.485Zm-100.959-11.852a19,19,0,0,1,18.9-19.092,19.019,19.019,0,0,1,18.9,19.092,19,19,0,0,1-18.9,19.092A19,19,0,0,1-2046.823-327.337Zm3.935,0a15.044,15.044,0,0,0,14.969,15.117,15.061,15.061,0,0,0,14.969-15.117,15.043,15.043,0,0,0-14.969-15.116A15.043,15.043,0,0,0-2042.888-327.337Zm46.047,16.273a1.977,1.977,0,0,1-1.968-1.987,1.978,1.978,0,0,1,1.968-1.988h22.3a1.977,1.977,0,0,1,1.967,1.988,1.977,1.977,0,0,1-1.967,1.987Zm61.349-9.936a7.427,7.427,0,0,1-2.114-5.253,7.447,7.447,0,0,1,2.183-5.223,7.284,7.284,0,0,1,10.373.07,7.46,7.46,0,0,1-.069,10.476,7.274,7.274,0,0,1-5.152,2.135A7.276,7.276,0,0,1-1935.493-321Zm2.834-7.635h0a3.458,3.458,0,0,0-.034,4.855,3.376,3.376,0,0,0,4.808.033,3.457,3.457,0,0,0,.033-4.855,3.324,3.324,0,0,0-2.4-1.01h-.048A3.347,3.347,0,0,0-1932.659-328.635Zm-29.082,7.627a7.459,7.459,0,0,1,0-10.476,7.283,7.283,0,0,1,10.373,0,7.468,7.468,0,0,1,0,10.476,7.276,7.276,0,0,1-5.187,2.17A7.273,7.273,0,0,1-1961.74-321.008Zm2.787-7.666a3.457,3.457,0,0,0,0,4.854,3.375,3.375,0,0,0,4.8,0l.031-.03a3.437,3.437,0,0,0-.03-4.825,3.374,3.374,0,0,0-2.4-1A3.371,3.371,0,0,0-1958.953-328.675Zm10.333-5.584a7.44,7.44,0,0,1-2.148-5.237,7.37,7.37,0,0,1,7.333-7.408,7.371,7.371,0,0,1,7.334,7.406,7.37,7.37,0,0,1-7.333,7.408h-.021A7.246,7.246,0,0,1-1948.621-334.258Zm2.783-7.665a3.426,3.426,0,0,0-1,2.427,3.449,3.449,0,0,0,1,2.428,3.375,3.375,0,0,0,4.807,0,3.457,3.457,0,0,0,0-4.855,3.372,3.372,0,0,0-2.4-1.006A3.369,3.369,0,0,0-1945.838-341.924Z" transform="translate(2803.057 3006.253)"/></g></svg>