<svg xmlns="http://www.w3.org/2000/svg" width="164.679" height="170" viewBox="0 0 164.679 170"><defs><style>.a{fill:#98fc03;opacity:0.15;}.b{fill:#fff;}</style></defs><g transform="translate(-727 -1968)"><path class="a" d="M-2286.4,176a14.418,14.418,0,0,1-10.029-4.122,88.947,88.947,0,0,1-18.888-16.6,99.8,99.8,0,0,1-14.141-21.977l-6.244-43.754c-2-9.259,6.243-21.819,13.5-30.724a194.669,194.669,0,0,1,34-31.86l-26.006,97.054a6.438,6.438,0,0,0,.646,4.912,6.408,6.408,0,0,0,3.92,3.015l52.555,14.083a6.514,6.514,0,0,0,1.673.221,6.484,6.484,0,0,0,6.246-4.8l.529-2.056c.239,2.795.5,5.713.773,8.673a18.96,18.96,0,0,0,3.419,8.617,43.092,43.092,0,0,0,5.018,6.047,69.522,69.522,0,0,0-10.3-.932,31.36,31.36,0,0,0-4.172.257c-4.241.565-8.9,3.4-13.833,6.393C-2273.836,172.16-2280.155,176-2286.4,176Zm86.691-11.938-3.613-68.577a13.513,13.513,0,0,0-2.159-6.638,13.563,13.563,0,0,0-5.187-4.682l-20-10.165,2.346-10.407,7.643-28.523a6.478,6.478,0,0,0-3-7.282,6.456,6.456,0,0,0-1.562-.645l-8.578-2.3-35.643-9.551a39.612,39.612,0,0,1,7.006-2.682A73.649,73.649,0,0,1-2249.71,8a61.6,61.6,0,0,1,15.339-2,55.489,55.489,0,0,1,12.6,1.444c3.386.791,7.736,5.286,12.928,13.359a175.62,175.62,0,0,1,8.633,15.358c.241.479.387.767.412.8,4.25,5.521,8.234,9.988,11.749,13.929,13.149,14.743,20.392,22.864,14.833,55.2a.062.062,0,0,1-.006.036,149.029,149.029,0,0,1-2.459,22.392,84.958,84.958,0,0,1-5.23,17.848c-2.685,6.151-5.986,10.614-9.814,13.268a33.984,33.984,0,0,1-8.985,4.425Z" transform="translate(3063.002 1962)"/><path class="b" d="M-2217.728,133.919a1.765,1.765,0,0,1-1.762-1.671l-3.846-72.973a10.025,10.025,0,0,0-5.428-8.367l-19.677-10.076-1.813,6.765,12.854,21.547-.708,3.093-.572-.13a2.912,2.912,0,0,1-1.872-1.359l-10.992-18.427-12.372-20.74a8.031,8.031,0,0,0-4.865-3.741,7.976,7.976,0,0,0-2.063-.272,7.925,7.925,0,0,0-3.581.851,8.269,8.269,0,0,0-3.941,10.465l14.534,35.571c.024.059.3,3.524.53,6.537l-.024.113,1.137,10.946-.2.737c.162,2.079.4,5.071.559,7.05.252,3.081.47,5.654.666,7.868.1,1.184.215,2.408.328,3.636.4,4.248,3.763,9.293,10.011,14.995l.252.231-.678,2.96a.583.583,0,0,1-.572.454h-.01a.558.558,0,0,1-.123-.014l-.012,0-.013,0a.561.561,0,0,1-.23-.126,51.294,51.294,0,0,1-8.719-9.548,18.951,18.951,0,0,1-3.419-8.616c-.27-2.912-.53-5.83-.773-8.673l-.529,2.056a6.482,6.482,0,0,1-6.246,4.8,6.473,6.473,0,0,1-1.673-.221l-52.555-14.083a6.408,6.408,0,0,1-3.921-3.015,6.439,6.439,0,0,1-.646-4.912l28.5-106.372a6.48,6.48,0,0,1,6.244-4.8,6.436,6.436,0,0,1,1.673.222l43.955,11.776,8.578,2.3a6.491,6.491,0,0,1,1.561.644,6.479,6.479,0,0,1,3.005,7.283l-7.643,28.523.022.006-2.718,10.142,20.353,10.423a13.553,13.553,0,0,1,5.188,4.682,13.533,13.533,0,0,1,2.159,6.638l3.844,72.973a1.749,1.749,0,0,1-.451,1.273,1.754,1.754,0,0,1-1.219.58Zm-64.608-30.281,9.651,2.586a2.926,2.926,0,0,0,.758.1,2.948,2.948,0,0,0,2.841-2.186l3.029-11.3-58.177-15.646-3.041,11.352a2.945,2.945,0,0,0,2.074,3.605l42.865,11.487h0Zm4.713-17.591h0l11.4,3.045c-.426-5.835-.9-13.254-.879-13.3l-14.533-35.57a11.7,11.7,0,0,1-.117-8.572,11.745,11.745,0,0,1,5.746-6.38,11.407,11.407,0,0,1,5.159-1.227h.006a11.565,11.565,0,0,1,5.7,1.507,11.445,11.445,0,0,1,4.28,4.272l8.062,13.515L-2242.655,5.5l-11.409-3.047-.006.024L-2300.845-10.1l-22.478,83.887,45.691,12.288.008-.031ZM-2253.2-.981h0s0,0,0,.01l11.457,3.06,1.158-4.323a2.946,2.946,0,0,0-1.365-3.313,2.947,2.947,0,0,0-.709-.293l-9.651-2.586-42.864-11.485a2.922,2.922,0,0,0-.76-.1,2.947,2.947,0,0,0-2.839,2.185l-1.158,4.324,45.693,12.279.006-.023,1.025.274c0-.008.005-.008.006-.009Zm-43.7,98.375a5.345,5.345,0,0,1-1.378-.182,5.277,5.277,0,0,1-3.219-2.465,5.247,5.247,0,0,1-.531-4.013,5.3,5.3,0,0,1,5.108-3.919,5.342,5.342,0,0,1,1.378.182,5.271,5.271,0,0,1,3.219,2.466,5.251,5.251,0,0,1,.531,4.013A5.3,5.3,0,0,1-2296.906,97.394Zm-.017-8.227a2.94,2.94,0,0,0-2.835,2.175,2.919,2.919,0,0,0,.294,2.231,2.926,2.926,0,0,0,1.787,1.369,2.936,2.936,0,0,0,.764.1,2.943,2.943,0,0,0,2.84-2.177,2.911,2.911,0,0,0-.3-2.228,2.924,2.924,0,0,0-1.786-1.37,2.95,2.95,0,0,0-.766-.1ZM-2266.4-6.349a1.994,1.994,0,0,1-.5-.066l-5.065-1.332-.011,0a1.736,1.736,0,0,1-1.083-.8,1.77,1.77,0,0,1-.164-1.351,1.7,1.7,0,0,1,1.661-1.32,1.994,1.994,0,0,1,.5.066L-2266-9.823a1.739,1.739,0,0,1,1.094.8,1.769,1.769,0,0,1,.164,1.35A1.7,1.7,0,0,1-2266.4-6.349Z" transform="translate(3085.492 1995.394)"/></g></svg>