<svg xmlns="http://www.w3.org/2000/svg" width="160.433" height="170" viewBox="0 0 160.433 170"><defs><style>.a,.b{fill:#fff;}.a{opacity:0.1;}.c{fill:none;stroke:#fff;stroke-width:2px;}</style></defs><g transform="translate(0 0)"><path class="a" d="M22.1,176h-.005a51.9,51.9,0,0,1-15.766-2.356A48.577,48.577,0,0,1-5.8,167.79c-7.019-4.664-11.962-10.353-15.934-14.924-1.709-1.967-3.185-3.665-4.523-4.92-2.443-2.289-3.906-8.129-4.349-17.356a169.03,169.03,0,0,1,.2-16.962c.029-.518.047-.829.041-.868-.886-6.65-2.057-12.293-3.091-17.271-1.544-7.437-2.764-13.311-2.5-19.4.285-6.592,2.314-12.708,6.578-19.831-.248-.96-.326-1.473-.232-1.525l0,0c.187-.228,1.9-2.315,4.572-5.454v62.094c0,3.338,3.241,6.053,7.224,6.053H12.836v11.012H38.61V117.42h.073c1.286.016,4.793.055,9.579.055a32.078,32.078,0,0,0,27.369,26.442,60.057,60.057,0,0,0-9.868,4.029c-9.388,4.868-14.888,10.9-19.739,16.225a59.206,59.206,0,0,1-7.863,7.666,18.666,18.666,0,0,1-9.622,3.83A64.3,64.3,0,0,1,22.1,176Zm74.046-36.081v0a32.256,32.256,0,0,0-16.1-60.2c-.637,0-1.282.019-1.919.056V44.277c0-3.338-3.241-6.054-7.224-6.054h-.778c-11.189.009-33.044.023-53.712.023-13.724,0-24.434-.006-31.832-.019C-2.61,23.895,14.126,6.69,21.114,6.112c.9-.074,1.805-.112,2.7-.112,6.235,0,12.419,1.81,18.908,5.533,5.709,3.276,10.857,7.53,15.835,11.645,5.673,4.688,11.032,9.117,16.393,11.327C77.927,35.733,81.8,35.9,85.2,35.9c1.421,0,2.915-.033,4.359-.066h.053c1.473-.033,3-.067,4.521-.067,4.09,0,8.8.218,12.742,1.836a13.853,13.853,0,0,1,8.266,9.189,85.64,85.64,0,0,1,7.76,22.929,96.06,96.06,0,0,1,1.211,25.13l-15.856,39.486c-.541,1.681-1.837,2.88-4.078,3.774A37.6,37.6,0,0,1,96.146,139.919Zm-60.51-11.487h0Z" transform="translate(36.001 -6)"/><path class="b" d="M92.534,103.459A32.249,32.249,0,0,1,73.3,79.253c-5.733,0-9.611-.055-9.65-.055V90.209h8.425a1.487,1.487,0,0,1,0,2.974H30.444a1.487,1.487,0,1,1,0-2.974h7.435V79.2H7.224C3.241,79.2,0,76.482,0,73.144V6.054C0,2.715,3.241,0,7.224,0H81.5V2.352H7.077c-2.39,0-4.334,1.629-4.334,3.632v67.09c0,2,1.944,3.632,4.334,3.632h60.9l5-.005q-.133-1.468-.133-2.959a32.237,32.237,0,0,1,27.589-31.919V5.985c0-2-1.944-3.632-4.334-3.632H81.5V0H95.944c3.983,0,7.224,2.715,7.224,6.054V41.547q.955-.056,1.919-.056a32.251,32.251,0,1,1-12.553,61.968ZM75.316,73.743a29.771,29.771,0,1,0,29.771-29.771A29.8,29.8,0,0,0,75.316,73.743ZM40.853,90.209H60.678V79.2H40.853Z" transform="translate(15.772 27.41)"/><path class="b" d="M128.98,225.929H103.792a1.833,1.833,0,1,1,0-3.666H128.98a1.833,1.833,0,1,1,0,3.666Z" transform="translate(-61.604 -138.003)"/><path class="b" d="M177.148,225.929H78.792a1.833,1.833,0,1,1,0-3.666h98.356a1.833,1.833,0,0,1,0,3.666Z" transform="translate(-60.672 -181.326)"/><path class="b" d="M105.189,225.929h-1.4a1.833,1.833,0,1,1,0-3.666h1.4a1.833,1.833,0,1,1,0,3.666Z" transform="translate(-71.516 -138.003)"/><path class="b" d="M128.858,225.929H89.792a1.833,1.833,0,1,1,0-3.666h39.066a1.833,1.833,0,1,1,0,3.666Z" transform="translate(-61.482 -129.082)"/><path class="b" d="M95.317,180.862a1.824,1.824,0,0,1-1.294-.536l-4.4-4.4a1.83,1.83,0,0,1,0-2.588l4.4-4.4a1.83,1.83,0,1,1,2.588,2.588L93.5,174.628l3.111,3.111a1.829,1.829,0,0,1-1.294,3.123Z" transform="translate(-62.194 -103.849)"/><path class="b" d="M149.709,180.861a1.83,1.83,0,0,1-1.294-3.124l3.111-3.111-3.111-3.111A1.83,1.83,0,0,1,151,168.928l4.4,4.4a1.83,1.83,0,0,1,0,2.588l-4.4,4.4A1.823,1.823,0,0,1,149.709,180.861Z" transform="translate(-99.472 -103.848)"/><path class="b" d="M119.529,180.861a1.831,1.831,0,0,1-1.592-2.73l4.974-8.809a1.83,1.83,0,1,1,3.187,1.8l-4.974,8.809a1.83,1.83,0,0,1-1.6.931Z" transform="translate(-80.338 -103.847)"/><path class="c" d="M510.964,293.564l-2.671-2.255a2.112,2.112,0,0,0-2.814.076L504,292.767a15.244,15.244,0,0,0-3.934-1.272l-.415-2.035a2.132,2.132,0,0,0-2.255-1.7l-3.484.3a2.123,2.123,0,0,0-1.941,2.043l-.068,2.068a15.289,15.289,0,0,0-3.756,1.975l-1.763-1.17a2.118,2.118,0,0,0-2.789.4l-2.255,2.687a2.112,2.112,0,0,0,.076,2.815l1.543,1.645a15.8,15.8,0,0,0-1.136,3.764l-2.2.449a2.132,2.132,0,0,0-1.7,2.255l.3,3.484a2.123,2.123,0,0,0,2.043,1.941l2.382.076a15.564,15.564,0,0,0,1.687,3.222l-1.331,2.009a2.118,2.118,0,0,0,.4,2.789l2.67,2.255a2.113,2.113,0,0,0,2.815-.076l1.746-1.636a15.307,15.307,0,0,0,3.586,1.17l.483,2.391a2.132,2.132,0,0,0,2.255,1.7l3.484-.3a2.123,2.123,0,0,0,1.941-2.043l.076-2.34a15.67,15.67,0,0,0,3.586-1.814l1.924,1.272a2.118,2.118,0,0,0,2.789-.4l2.255-2.67a2.112,2.112,0,0,0-.076-2.814l-1.551-1.645a15.276,15.276,0,0,0,1.221-3.781l2.119-.432a2.132,2.132,0,0,0,1.7-2.255l-.3-3.484a2.123,2.123,0,0,0-2.043-1.941l-2.128-.068a15.393,15.393,0,0,0-1.772-3.493l1.161-1.746A2.107,2.107,0,0,0,510.964,293.564Zm-13.131,20.142a6.968,6.968,0,0,1-6.374-3.176,6.493,6.493,0,0,1-1.027-3.072,6.849,6.849,0,1,1,7.4,6.248Z" transform="translate(-376.317 -205.861)"/><path class="b" d="M103.776,225.929h.016a1.833,1.833,0,1,1,0-3.666h-.016a1.833,1.833,0,1,1,0,3.666Z" transform="translate(-79.218 -189.028)"/><path class="b" d="M103.776,225.929h.016a1.833,1.833,0,1,1,0-3.666h-.016a1.833,1.833,0,1,1,0,3.666Z" transform="translate(-73.442 -189.028)"/><path class="b" d="M103.776,225.929h.016a1.833,1.833,0,1,1,0-3.666h-.016a1.833,1.833,0,1,1,0,3.666Z" transform="translate(-67.665 -189.028)"/></g></svg>