<svg xmlns="http://www.w3.org/2000/svg" width="235" height="344" viewBox="0 0 235 344"><defs><style>.a{fill:#98fc03;}</style></defs><g transform="translate(-982 -447)"><rect class="a" width="10" height="10" transform="translate(1027 447)"/><rect class="a" width="10" height="10" transform="translate(982 447)"/><rect class="a" width="10" height="10" transform="translate(1027 514)"/><rect class="a" width="10" height="10" transform="translate(982 514)"/><rect class="a" width="10" height="10" transform="translate(1027 581)"/><rect class="a" width="10" height="10" transform="translate(982 581)"/><rect class="a" width="10" height="10" transform="translate(1027 647)"/><rect class="a" width="10" height="10" transform="translate(982 647)"/><rect class="a" width="10" height="10" transform="translate(1027 714)"/><rect class="a" width="10" height="10" transform="translate(982 714)"/><rect class="a" width="10" height="10" transform="translate(1027 781)"/><rect class="a" width="10" height="10" transform="translate(982 781)"/><rect class="a" width="10" height="10" transform="translate(1072 447)"/><rect class="a" width="10" height="10" transform="translate(1072 514)"/><rect class="a" width="10" height="10" transform="translate(1072 581)"/><rect class="a" width="10" height="10" transform="translate(1072 647)"/><rect class="a" width="10" height="10" transform="translate(1072 714)"/><rect class="a" width="10" height="10" transform="translate(1072 781)"/><rect class="a" width="10" height="10" transform="translate(1117 447)"/><rect class="a" width="10" height="10" transform="translate(1117 514)"/><rect class="a" width="10" height="10" transform="translate(1117 581)"/><rect class="a" width="10" height="10" transform="translate(1117 647)"/><rect class="a" width="10" height="10" transform="translate(1117 714)"/><rect class="a" width="10" height="10" transform="translate(1117 781)"/><rect class="a" width="10" height="10" transform="translate(1162 447)"/><rect class="a" width="10" height="10" transform="translate(1207 447)"/><rect class="a" width="10" height="10" transform="translate(1162 514)"/><rect class="a" width="10" height="10" transform="translate(1207 514)"/><rect class="a" width="10" height="10" transform="translate(1162 581)"/><rect class="a" width="10" height="10" transform="translate(1207 581)"/><rect class="a" width="10" height="10" transform="translate(1162 647)"/><rect class="a" width="10" height="10" transform="translate(1207 647)"/><rect class="a" width="10" height="10" transform="translate(1162 714)"/><rect class="a" width="10" height="10" transform="translate(1207 714)"/><rect class="a" width="10" height="10" transform="translate(1162 781)"/><rect class="a" width="10" height="10" transform="translate(1207 781)"/></g></svg>