<svg xmlns="http://www.w3.org/2000/svg" width="236.196" height="159" viewBox="0 0 236.196 159"><defs><style>.a,.b{fill:#6371dd;}.b{opacity:0.2;}.c{fill:#ff7e61;}.d{fill:#98fc03;}</style></defs><g transform="translate(-110 -2009)"><circle class="a" cx="7.51" cy="7.51" r="7.51" transform="translate(331.175 2086.553)"/><circle class="b" cx="3.51" cy="3.51" r="3.51" transform="translate(241.175 2061.553)"/><circle class="a" cx="4.59" cy="4.59" r="4.59" transform="translate(193.326 2009)"/><g transform="translate(109.906 2339.799)"><path class="c" d="M60.321-240.135a7.908,7.908,0,0,0-4.349,7.128v1.117l-1.812.181c-4.56.483-7.248,3.352-7.248,7.732v1.54H45.19a7.675,7.675,0,0,0-7.641,7.913c0,1.117-.03,1.148-1.148,1.148a7.745,7.745,0,0,0-7.913,7.883v1.419l-1.9.121a7.83,7.83,0,0,0-5.859,2.9c-.936,1.238-1.057,1.661-1.45,4.651-.181,1.45-.181,1.45-1.329,1.45a8.123,8.123,0,0,0-7.037,4.017c-1,1.933-1.087,5.315-.242,8.124a16.752,16.752,0,0,0,2.809,5.829C15.713-173.661,17.284-172,18.25-172a1.689,1.689,0,0,0,1.782-1.54,5.045,5.045,0,0,0-1.3-2.023,20.655,20.655,0,0,1-5.195-9.272c-.906-4.379.906-6.946,4.711-6.735l1.57.091L21.24-188.7a28.046,28.046,0,0,0,12.232,12.322c2.507,1.3,3.262,1.329,4.409.181,1.148-1.178,1.117-1.963-.3-4.681a29.006,29.006,0,0,0-13.228-12.594l-1.993-.876.151-1.933c.272-3.171,1.6-4.409,4.711-4.409h1.9l1,2.2A29.531,29.531,0,0,0,42.895-185.47c1.963,1,3.383,1.027,4.228.091.936-1.027,1.027-1.631.483-3.02-2.144-5.376-7.611-11.114-13.258-13.832l-2.537-1.238v-1.782c0-2.96,1.117-4.319,3.745-4.681,2.265-.332,2.628-.091,3.9,2.537a30.328,30.328,0,0,0,11.114,11.93c2.718,1.6,4.047,1.963,5.044,1.389a2.493,2.493,0,0,0,1.329-3.171c-1.419-4.772-7.732-11.446-13.379-14.195-2.658-1.3-2.9-1.631-2.567-3.926.362-2.628,1.721-3.745,4.681-3.745h1.782l1.238,2.537c2.688,5.587,8.426,11.114,13.56,13.138,1.661.664,2.235.6,3.322-.362.876-.815.846-2.054-.06-4.047a29.167,29.167,0,0,0-13.56-13.2l-1.721-.755v-1.872c0-3.111,1.691-4.8,4.772-4.8,1.48,0,1.721.211,2.446,1.9a29.406,29.406,0,0,0,12.594,13.228c2.718,1.419,3.5,1.45,4.681.3,1.148-1.148,1.117-1.9-.181-4.379a23.86,23.86,0,0,0-5.134-6.977,25.644,25.644,0,0,0-7.55-5.466L59.445-231.1l-.091-1.54a4.589,4.589,0,0,1,1.872-4.349c1.48-.936,5.164-.634,7.822.574a23.579,23.579,0,0,1,6.312,4.228c1.51,1.389,2.326,1.6,3.081.815.966-.936.6-2.054-1.087-3.5-4.651-3.926-8.517-5.708-12.775-5.889C62.224-240.859,61.65-240.769,60.321-240.135Zm3.141,14.95a30.86,30.86,0,0,1,3.624,3.081c1.872,1.872,4.44,5.346,4.168,5.648-.211.181-2.718-1.54-4.681-3.232-1.54-1.3-5.164-5.8-5.164-6.4C61.408-226.544,61.65-226.423,63.462-225.185Zm-8.849,9.393a30.313,30.313,0,0,1,7.55,8.426c.423.755-2.2-.936-4.409-2.779-1.933-1.661-5.708-6.191-5.708-6.886C52.046-217.363,52.891-216.97,54.613-215.792Zm-8.4,9.846a34.87,34.87,0,0,1,3.05,2.779c1.45,1.6,3.805,4.862,3.624,5.074-.181.151-2.779-1.51-4.379-2.839a35.147,35.147,0,0,1-5.406-6.433l-.453-.906.906.483A18.861,18.861,0,0,1,46.217-205.946Zm-10.842,8.034a25.652,25.652,0,0,1,7.883,8.124l.725,1.3-1.178-.725a27.307,27.307,0,0,1-8.849-9C33.472-199.091,33.713-199.06,35.374-197.913Zm-7.581,10.389A27.639,27.639,0,0,1,33.834-181c.393.664.695,1.268.6,1.329-.272.3-3.805-2.386-5.708-4.319a20.787,20.787,0,0,1-3.866-4.742l-.695-1.148.725.362C25.287-189.305,26.586-188.4,27.794-187.524Z"/></g><path class="d" d="M-2022.458-147.27h-39.356a4.191,4.191,0,0,1-4.186-4.187v-39.356a4.191,4.191,0,0,1,4.186-4.187h39.356a4.192,4.192,0,0,1,4.187,4.187v39.356A4.192,4.192,0,0,1-2022.458-147.27Zm-36.006-44.38a4.191,4.191,0,0,0-4.187,4.186v32.658a4.191,4.191,0,0,0,4.187,4.186h32.657a4.191,4.191,0,0,0,4.186-4.186v-32.658a4.191,4.191,0,0,0-4.186-4.186Z" transform="translate(1466.747 3608.151) rotate(45)"/><path class="d" d="M-2052.595-14.19a13.316,13.316,0,0,1-9.478-3.926A13.317,13.317,0,0,1-2066-27.6a13.317,13.317,0,0,1,3.926-9.479A13.316,13.316,0,0,1-2052.595-41a13.318,13.318,0,0,1,9.479,3.926,13.318,13.318,0,0,1,3.926,9.479,13.318,13.318,0,0,1-3.926,9.479A13.318,13.318,0,0,1-2052.595-14.19Zm0-24.194A10.8,10.8,0,0,0-2063.384-27.6a10.8,10.8,0,0,0,10.789,10.79,10.8,10.8,0,0,0,10.79-10.79A10.8,10.8,0,0,0-2052.595-38.384Z" transform="translate(2324 2182.19)"/></g></svg>