<svg xmlns="http://www.w3.org/2000/svg" width="161.589" height="170" viewBox="0 0 161.589 170"><defs><style>.a{fill:#5992e7;opacity:0.1;}.b{fill:#fff;}</style></defs><g transform="translate(-0.443 -0.679)"><g transform="translate(0.443 0.679)"><path class="a" d="M55.074,115.3v11.326a4.119,4.119,0,0,0,4.119,4.119H74.637a4.119,4.119,0,0,0,4.119-4.119V115.3h13.9v32.949a4.119,4.119,0,0,0,4.119,4.119H108.2c-14.665,14.609-21.735,21.336-51.877,17.019-8.767-1.255-23.493-26.411-23.773-26.715C10.966,119.194-2.407,118.346.96,77.962c.438-5.248,9.287-15,12.413-18.747v51.968a4.119,4.119,0,0,0,4.119,4.119Zm88.036,7.519V66.908a4.119,4.119,0,0,0-4.119-4.119H119.427V38.077a4.119,4.119,0,0,0-4.119-4.119H23.744c1.061-2.788,2.2-5.54,3.521-8.214A15.5,15.5,0,0,1,33.555,19c14.116-7.605,24.535,1.615,40.771-2.012C86.133,14.35,99.987-7.339,114.671,3.875q21.762,11.66,35.243,34.544l9.751,41.831C166.685,102.98,157.176,112.4,143.11,122.82Z" transform="translate(-0.443 -0.679)"/><path class="b" d="M-3281.617-2564.672c-4.163,0-7.538-3.094-7.538-6.908v-30.158h-14.729v11.438h8.752a1.545,1.545,0,0,1,1.544,1.545,1.545,1.545,0,0,1-1.544,1.544h-43.246a1.545,1.545,0,0,1-1.544-1.544,1.545,1.545,0,0,1,1.544-1.545h7.723v-11.438H-3362.5c-4.145,0-7.5-2.815-7.5-6.287v-69.686c0-3.473,3.359-6.288,7.5-6.288h92.154c4.145,0,7.5,2.815,7.5,6.288v22.143h15.972c4.163,0,7.538,3.093,7.538,6.908v77.08c0,3.814-3.375,6.908-7.538,6.908Zm-4.522-83.988v77.08a4.346,4.346,0,0,0,4.522,4.146h34.751a4.347,4.347,0,0,0,4.523-4.146v-77.08a4.347,4.347,0,0,0-4.523-4.146h-34.751A4.346,4.346,0,0,0-3286.139-2648.66Zm-41.426,58.36h20.593v-11.438h-20.593Zm-39.585-87.483v69.686c0,2.083,2.015,3.773,4.5,3.773h73.493v-44.336c0-3.815,3.375-6.908,7.538-6.908h15.625v-22.215c0-2.083-2.015-3.773-4.5-3.773h-92.155C-3365.135-2681.556-3367.15-2679.867-3367.15-2677.783Zm98.606,101.923a5.147,5.147,0,0,1,5.125-5.169,5.146,5.146,0,0,1,5.125,5.169,5.147,5.147,0,0,1-5.125,5.169A5.147,5.147,0,0,1-3268.544-2575.86Zm3.075-.005a2.054,2.054,0,0,0,2.045,2.063,2.054,2.054,0,0,0,2.045-2.063,2.054,2.054,0,0,0-2.045-2.062A2.054,2.054,0,0,0-3265.469-2575.866Zm-.887-18.967a1.814,1.814,0,0,1-1.812-1.814,1.814,1.814,0,0,1,1.813-1.813h6.5l-15.041-15.042a1.813,1.813,0,0,1,.022-2.542,1.812,1.812,0,0,1,2.542-.022l15.043,15.042v-6.5a1.814,1.814,0,0,1,1.813-1.814,1.814,1.814,0,0,1,1.814,1.814v10.883a1.814,1.814,0,0,1-1.814,1.814Zm-90.619-28.716a1.9,1.9,0,0,1-1.9-1.9,1.9,1.9,0,0,1,1.9-1.9h34.4a1.9,1.9,0,0,1,1.9,1.9,1.9,1.9,0,0,1-1.9,1.9Zm93.173-8.337a2.2,2.2,0,0,1-2.2-2.2,2.205,2.205,0,0,1,2.2-2.206h11.027a2.206,2.206,0,0,1,2.206,2.206,2.206,2.206,0,0,1-2.206,2.2Zm-11.025,0a2.205,2.205,0,0,1-2.206-2.2,2.206,2.206,0,0,1,2.206-2.206h2.2a2.206,2.206,0,0,1,2.206,2.206,2.205,2.205,0,0,1-2.206,2.2Zm-82.147-2.99a1.9,1.9,0,0,1-1.9-1.9,1.9,1.9,0,0,1,1.9-1.9h40.578a1.9,1.9,0,0,1,1.9,1.9,1.9,1.9,0,0,1-1.9,1.9Zm14.415-9.266a1.9,1.9,0,0,1-1.9-1.9,1.9,1.9,0,0,1,1.9-1.9h26.162a1.9,1.9,0,0,1,1.9,1.9,1.9,1.9,0,0,1-1.9,1.9Zm-10.3,0a1.9,1.9,0,0,1-1.9-1.9,1.9,1.9,0,0,1,1.9-1.9h1.451a1.9,1.9,0,0,1,1.9,1.9,1.9,1.9,0,0,1-1.9,1.9Zm17.313-11.893a1.9,1.9,0,0,1,0-2.687l3.231-3.232-3.231-3.231a1.9,1.9,0,0,1,0-2.688,1.9,1.9,0,0,1,2.688,0l4.576,4.575a1.9,1.9,0,0,1,0,2.688l-4.576,4.575a1.893,1.893,0,0,1-1.344.557A1.893,1.893,0,0,1-3335.544-2656.033Zm-11.063.311a1.9,1.9,0,0,1-.72-2.59l5.167-9.149a1.9,1.9,0,0,1,2.589-.722,1.9,1.9,0,0,1,.721,2.59l-5.167,9.15a1.9,1.9,0,0,1-1.658.967A1.894,1.894,0,0,1-3346.607-2655.722Zm-6.714-.311-4.575-4.575a1.9,1.9,0,0,1,0-2.688l4.575-4.574a1.9,1.9,0,0,1,2.687,0,1.9,1.9,0,0,1,0,2.688l-3.23,3.231,3.23,3.231a1.9,1.9,0,0,1,0,2.688,1.892,1.892,0,0,1-1.344.556A1.892,1.892,0,0,1-3353.321-2656.033Z" transform="translate(3387.345 2712.902)"/></g></g></svg>