<svg xmlns="http://www.w3.org/2000/svg" xmlns:xlink="http://www.w3.org/1999/xlink" width="430" height="100" viewBox="0 0 430 100"><defs><style>.a{fill:#160a28;}.b{fill:#ea4335;}.c{fill:#fbbc05;}.d{fill:#35a854;opacity:0.99;}.e{filter:url(#a);}</style><filter id="a" x="0" y="0" width="430" height="100" filterUnits="userSpaceOnUse"><feOffset dy="5" input="SourceAlpha"/><feGaussianBlur stdDeviation="10" result="b"/><feFlood flood-opacity="0.051"/><feComposite operator="in" in2="b"/><feComposite in="SourceGraphic"/></filter></defs><g transform="translate(-148 -3659)"><g class="e" transform="matrix(1, 0, 0, 1, 148, 3659)"><path class="a" d="M15,0H355a15,15,0,0,1,15,15V40a0,0,0,0,1,0,0H0a0,0,0,0,1,0,0V15A15,15,0,0,1,15,0Z" transform="translate(30 25)"/></g><path class="b" d="M14.6,11.544A4.023,4.023,0,1,1,10.582,7.53,4.023,4.023,0,0,1,14.6,11.544Z" transform="translate(186.45 3692.47)"/><path class="c" d="M29.438,11.544a4.014,4.014,0,1,1-4-4.014A4.014,4.014,0,0,1,29.438,11.544Z" transform="translate(184.642 3692.47)"/><path class="d" d="M44.278,11.544A4.014,4.014,0,1,1,40.264,7.53,4.014,4.014,0,0,1,44.278,11.544Z" transform="translate(182.836 3692.47)"/></g></svg>